Patient4_TMGait_0pt7_01_right_36_GRF.mot
version=1
nRows=65
nColumns=19
inDegrees=no
endheader
time	F1x	F1y	F1z	M1x	M1y	M1z	F2x	F2y	F2z	M2x	M2y	M2z	EC1x	EC1y	EC1z	EC2x	EC2y	EC2z
40.98	-6.0933	700.2568	62.1151	-227.495	-69.6948	759.0831	13.8495	2.272	5.2222	0.058407	-7.603	3.7669	-0.0592	0.0182	-0.0073	-0.0462	0.0165	0.9585
40.9922	-2.5012	703.582	61.0688	-230.8455	-66.6241	758.9246	9.0605	2.7107	3.5113	0.4867	-5.0035	3.9941	-0.0592	0.0182	-0.0073	-0.0462	0.0165	0.9585
41.0044	1.6156	710.369	59.8054	-235.4262	-63.1432	761.3561	5.0207	3.0943	2.058	0.85681	-2.7973	4.2085	-0.0592	0.0182	-0.0073	-0.0462	0.0165	0.9585
41.0166	6.0037	720.5207	58.4498	-241.0819	-59.4833	766.4522	1.9339	3.4065	0.94563	1.1487	-1.1072	4.4091	-0.0592	0.0182	-0.0073	-0.0462	0.0165	0.9585
41.0289	10.382	733.2663	57.1882	-247.4615	-55.9289	773.6807	-0.20243	3.648	0.17568	1.3632	0.062851	4.5782	-0.0592	0.0182	-0.0073	-0.0462	0.0165	0.9585
41.0411	14.5043	747.3687	56.2137	-254.0787	-52.7559	782.032	-1.5496	3.8349	-0.30246	1.5101	0.79322	4.7199	-0.0592	0.0182	-0.0073	-0.0462	0.0165	0.9585
41.0533	18.2256	761.4111	55.6825	-260.4096	-50.1727	790.3078	-2.295	3.9506	-0.56086	1.5933	1.1917	4.7975	-0.0592	0.0182	-0.0073	-0.0462	0.0165	0.9585
41.0655	21.5057	774.1486	55.6626	-266.0107	-48.259	797.3963	-2.6438	3.9818	-0.67079	1.6163	1.3712	4.7897	-0.0592	0.0182	-0.0073	-0.0462	0.0165	0.9585
41.0777	24.3669	784.6719	56.123	-270.5747	-46.9715	802.4704	-2.7673	3.8775	-0.69476	1.5685	1.4308	4.6351	-0.0592	0.0182	-0.0073	-0.0462	0.0165	0.9585
41.0899	26.8573	792.4504	56.9489	-273.938	-46.1842	805.0542	-2.7909	3.5578	-0.67334	1.4258	1.4411	4.2397	-0.0592	0.0182	-0.0073	-0.0462	0.0165	0.9585
41.1021	29.0011	797.2282	58.0136	-276.0383	-45.7729	804.9286	-2.7978	2.919	-0.63709	1.1532	1.45	3.4689	-0.0592	0.0182	-0.0073	-0.0462	0.0165	0.9585
41.1144	30.7847	798.8931	59.1999	-276.862	-45.6355	802.0227	-2.8118	1.8453	-0.60435	0.71132	1.4747	2.1725	-0.0592	0.0182	-0.0073	-0.0462	0.0165	0.9585
41.1266	32.223	797.4342	60.4496	-276.4236	-45.7216	796.3577	-2.8182	0.2388	-0.58129	0.067585	1.5053	0.22563	-0.0592	0.0182	-0.0073	-0.0462	0.0165	0.9585
41.1388	33.3224	792.9506	61.728	-274.7731	-46.0043	788.0574	-2.7391	-1.9344	-0.56048	-0.78783	1.4996	-2.4251	-0.0592	0.0182	-0.0073	-0.0462	0.0165	0.9585
41.151	34.1368	785.6721	63.0199	-272.0063	-46.4571	777.3358	-2.4674	-4.5693	-0.51809	-1.8147	1.384	-5.6639	-0.0592	0.0182	-0.0073	-0.0462	0.0165	0.9585
41.1632	34.7746	775.9715	64.3161	-268.2658	-47.0422	764.538	-1.8493	-7.3671	-0.4246	-2.8949	1.0605	-9.1363	-0.0592	0.0182	-0.0073	-0.0462	0.0165	0.9585
41.1754	35.3814	764.3664	65.6168	-263.7457	-47.7132	750.1175	-0.70446	-9.7258	-0.23803	-3.7934	0.4077	-12.0929	-0.0592	0.0182	-0.0073	-0.0462	0.0165	0.9585
41.1876	36.1059	751.5851	66.9383	-258.7113	-48.4324	734.706	1.1623	-10.6544	0.090047	-4.1216	-0.70716	-13.3156	-0.0592	0.0182	-0.0073	-0.0462	0.0165	0.9585
41.1999	37.1319	738.5087	68.3358	-253.4762	-49.1851	719.0699	3.9091	-8.6766	0.60323	-3.3044	-2.3898	-10.9892	-0.0592	0.0182	-0.0073	-0.0462	0.0165	0.9585
41.2121	38.6169	725.9867	69.8623	-248.3452	-49.9554	703.959	7.6027	-1.8203	1.3394	-0.57256	-4.6894	-2.6759	-0.0592	0.0182	-0.0073	-0.0462	0.0165	0.9585
41.2243	40.6884	714.6862	71.5204	-243.5698	-50.6841	689.9513	12.091	12.3069	2.2904	5.0037	-7.5192	14.6079	-0.0592	0.0182	-0.0073	-0.0462	0.0165	0.9585
41.2365	43.4173	704.8827	73.1731	-239.2846	-51.2036	677.2863	16.8896	36.2536	3.3906	14.409	-10.5873	44.0344	-0.0592	0.0182	-0.0073	-0.0462	0.0165	0.9585
41.2487	46.7725	696.2346	74.5515	-235.4279	-51.264	665.6573	20.9988	72.1917	4.4729	28.4717	-13.2798	88.3022	-0.0592	0.0182	-0.0073	-0.0462	0.0165	0.9585
41.2609	50.5716	687.6085	75.2604	-231.6809	-50.5561	654.0549	22.757	121.0006	5.2244	47.5074	-14.5542	148.5387	-0.0592	0.0182	-0.0073	-0.0462	0.0165	0.9585
41.2731	54.4803	677.0463	74.8535	-227.4497	-48.7893	640.7539	19.9406	181.1969	5.1381	70.9046	-12.9583	222.9935	-0.0592	0.0182	-0.0073	-0.0462	0.0165	0.9585
41.2854	58.0372	662.0126	72.911	-221.9356	-45.7517	623.5136	11.2629	248.7716	3.6409	97.0488	-7.3449	306.8009	-0.0592	0.0182	-0.0073	-0.0462	0.0165	0.9585
41.2976	60.6902	639.7716	69.179	-214.2506	-41.4211	599.9275	-1.9516	317.7547	0.22159	123.5562	2.3384	392.5266	-0.0592	0.0182	-0.0073	-0.0462	0.0165	0.9585
41.3098	61.9203	607.94	63.6561	-203.5902	-35.9965	567.9005	-16.9345	381.2458	-5.1917	147.7576	15.0143	471.2778	-0.0592	0.0182	-0.0073	-0.0462	0.0165	0.9585
41.322	61.3101	565.0699	56.6411	-189.4241	-29.9049	526.1557	-31.1665	435.1039	-12.0115	168.0818	28.9096	537.4816	-0.0592	0.0182	-0.0073	-0.0462	0.0165	0.9585
41.3342	58.5865	511.1484	48.6491	-171.6667	-23.6999	474.6946	-43.1377	479.7455	-19.2037	184.7143	42.1679	591.3959	-0.0592	0.0182	-0.0073	-0.0462	0.0165	0.9585
41.3464	53.667	447.715	40.3235	-150.7363	-17.9697	414.9257	-52.1134	517.8916	-26.0434	198.7214	53.6427	636.2897	-0.0592	0.0182	-0.0073	-0.0462	0.0165	0.9585
41.3586	46.6339	377.7057	32.2393	-127.534	-13.1783	349.5202	-57.9606	552.3665	-32.3182	211.185	63.0419	675.6652	-0.0592	0.0182	-0.0073	-0.0462	0.0165	0.9585
41.3709	37.8103	305.2129	24.8295	-103.3808	-9.5889	282.1928	-60.881	584.9756	-38.0768	222.7818	70.5453	711.7819	-0.0592	0.0182	-0.0073	-0.0462	0.0165	0.9585
41.3831	27.9345	234.8839	18.3943	-79.823	-7.2145	217.1508	-61.3185	616.4715	-43.7197	233.7545	76.8212	745.6703	-0.0592	0.0182	-0.0073	-0.0462	0.0165	0.9585
41.3953	18.1452	171.0035	13.0736	-58.3177	-5.7916	158.2331	-59.8428	646.7184	-49.5607	244.0157	82.5055	777.3324	-0.0592	0.0182	-0.0073	-0.0462	0.0165	0.9585
41.4075	9.6266	116.5463	8.8653	-39.904	-4.9179	108.0647	-57.1465	674.9196	-55.8233	253.24	88.143	806.0835	-0.0592	0.0182	-0.0073	-0.0462	0.0165	0.9585
41.4197	3.1427	72.876	5.6181	-25.0849	-4.2019	67.8283	-53.8749	699.8686	-62.398	260.9864	93.8848	830.7308	-0.0592	0.0182	-0.0073	-0.0462	0.0165	0.9585
41.4319	-1.0553	40.0593	3.1824	-13.9132	-3.4272	37.563	-50.5989	720.3519	-68.9679	266.8477	99.5821	850.0627	-0.0592	0.0182	-0.0073	-0.0462	0.0165	0.9585
41.4441	-3.1642	17.2525	1.4156	-6.1223	-2.5328	16.4905	-47.5675	735.4863	-74.8995	270.5867	104.6229	863.1676	-0.0592	0.0182	-0.0073	-0.0462	0.0165	0.9585
41.4564	-3.797	2.989	0.24111	-1.2259	-1.6583	3.2905	-44.8434	744.8966	-79.5463	272.1708	108.2959	869.6936	-0.0592	0.0182	-0.0073	-0.0462	0.0165	0.9585
41.4686	-3.5364	-4.6746	-0.4228	1.4275	-0.93311	-3.8075	-42.367	748.6102	-82.4335	271.7176	110.0499	869.6904	-0.0592	0.0182	-0.0073	-0.0462	0.0165	0.9585
41.4808	-2.8449	-7.7	-0.73611	2.4995	-0.37289	-6.6101	-40.0959	747.1967	-83.5224	269.5082	109.8313	863.8354	-0.0592	0.0182	-0.0073	-0.0462	0.0165	0.9585
41.493	-2.0091	-7.8189	-0.79752	2.5746	0.0083693	-6.7291	-37.9876	741.7523	-83.0617	265.9891	107.9331	853.3805	-0.0592	0.0182	-0.0073	-0.0462	0.0165	0.9585
41.5052	-1.2144	-6.3431	-0.72837	2.0987	0.25236	-5.3662	-36.075	733.8407	-81.4502	261.7583	104.8357	840.0935	-0.0592	0.0182	-0.0073	-0.0462	0.0165	0.9585
41.5174	-0.54278	-4.2294	-0.58191	1.3965	0.37447	-3.4207	-34.4055	725.407	-79.0135	257.5427	100.9488	826.1497	-0.0592	0.0182	-0.0073	-0.0462	0.0165	0.9585
41.5296	-0.049101	-2.0663	-0.42687	0.66946	0.42124	-1.4169	-33.0126	718.5063	-76.0386	254.097	96.6225	813.8339	-0.0592	0.0182	-0.0073	-0.0462	0.0165	0.9585
41.5419	0.30405	-0.17737	-0.27635	0.028647	0.41343	0.33332	-31.9132	714.8821	-72.7449	252.0532	92.1207	805.0436	-0.0592	0.0182	-0.0073	-0.0462	0.0165	0.9585
41.5541	0.50831	1.3032	-0.1553	-0.47954	0.37345	1.7184	-31.0622	715.6163	-69.3658	251.7872	87.6879	800.9186	-0.0592	0.0182	-0.0073	-0.0462	0.0165	0.9585
41.5663	0.62137	2.3471	-0.060222	-0.84906	0.3182	2.68	-30.373	720.9749	-66.1056	253.371	83.5103	801.6885	-0.0592	0.0182	-0.0073	-0.0462	0.0165	0.9585
41.5785	0.65699	3.0253	0.011455	-1.1019	0.25743	3.3047	-29.6971	730.4733	-63.1311	256.5994	79.7042	806.7585	-0.0592	0.0182	-0.0073	-0.0462	0.0165	0.9585
41.5907	0.65488	3.4025	0.061732	-1.2583	0.20516	3.6361	-28.8529	743.0666	-60.5365	261.0608	76.2956	814.9361	-0.0592	0.0182	-0.0073	-0.0462	0.0165	0.9585
41.6029	0.616	3.5841	0.099178	-1.3476	0.15273	3.7952	-27.6645	757.3136	-58.3553	266.1993	73.242	824.626	-0.0592	0.0182	-0.0073	-0.0462	0.0165	0.9585
41.6151	0.57267	3.6346	0.12569	-1.388	0.10405	3.8411	-25.9852	771.626	-56.5701	271.4051	70.4541	834.1238	-0.0592	0.0182	-0.0073	-0.0462	0.0165	0.9585
41.6274	0.50685	3.58	0.14231	-1.383	0.052141	3.8108	-23.7251	784.4388	-55.155	276.0736	67.8508	841.794	-0.0592	0.0182	-0.0073	-0.0462	0.0165	0.9585
41.6396	0.42313	3.4242	0.15258	-1.33	-0.004889	3.6937	-20.8586	794.3447	-54.0768	279.6636	65.3657	846.2021	-0.0592	0.0182	-0.0073	-0.0462	0.0165	0.9585
41.6518	0.32298	3.1347	0.16312	-1.2147	-0.074188	3.4358	-17.4371	800.2994	-53.2831	281.7753	62.9444	846.3428	-0.0592	0.0182	-0.0073	-0.0462	0.0165	0.9585
41.664	0.19465	2.6541	0.18532	-1.015	-0.17091	2.9373	-13.5715	801.7231	-52.7385	282.1844	60.5767	841.7275	-0.0592	0.0182	-0.0073	-0.0462	0.0165	0.9585
41.6762	0.043994	1.9106	0.23273	-0.70534	-0.30647	2.088	-9.4369	798.5372	-52.3817	280.857	58.2596	832.4107	-0.0592	0.0182	-0.0073	-0.0462	0.0165	0.9585
41.6884	-0.12089	0.83507	0.30741	-0.26288	-0.47515	0.8034	-5.2039	791.132	-52.2082	277.9322	56.0532	818.9193	-0.0592	0.0182	-0.0073	-0.0462	0.0165	0.9585
41.7006	-0.26615	-0.6061	0.41418	0.32268	-0.66325	-0.97308	-1.0473	780.2981	-52.228	273.6995	54.0405	802.1715	-0.0592	0.0182	-0.0073	-0.0462	0.0165	0.9585
41.7129	-0.3491	-2.3686	0.53171	1.0327	-0.825	-3.1805	2.8843	767.1307	-52.4865	268.5641	52.3312	783.3598	-0.0592	0.0182	-0.0073	-0.0462	0.0165	0.9585
41.7251	-0.25698	-4.2892	0.63006	1.8004	-0.88231	-5.6174	6.4658	752.985	-53.006	263.0253	51.0041	763.9096	-0.0592	0.0182	-0.0073	-0.0462	0.0165	0.9585
41.7373	0.10729	-5.987	0.65227	2.4744	-0.72531	-7.8021	9.6235	739.3165	-53.8084	257.6176	50.1172	745.3085	-0.0592	0.0182	-0.0073	-0.0462	0.0165	0.9585
41.7495	0.9077	-6.8222	0.52512	2.8	-0.2059	-8.9464	12.3362	727.5051	-54.8956	252.8487	49.6887	728.9242	-0.0592	0.0182	-0.0073	-0.0462	0.0165	0.9585
41.7617	2.2939	-5.7945	0.14175	2.3833	0.85896	-7.8055	14.6401	718.6637	-56.2796	249.1236	49.7261	715.8185	-0.0592	0.0182	-0.0073	-0.0462	0.0165	0.9585
